<svg xmlns="http://www.w3.org/2000/svg" width="281.529" height="63.191" viewBox="0 0 281.529 63.191">
  <g id="footer-logo" transform="translate(-816 -12596)">
    <g id="Group_823" data-name="Group 823" transform="translate(-3)">
      <g id="Group_821" data-name="Group 821" transform="translate(819 12596)">
        <rect id="Rectangle_2191" data-name="Rectangle 2191" width="63.191" height="63.191" rx="10" fill="#272727"/>
        <path id="Path_849" data-name="Path 849" d="M45.935,64.53c5.548,3.168,16.37-.439,14.047-8.749q-.378-1.365-1.365-4.911c-.944-3.272-2.451-3.489-5.26-4.25-8.792-2.361-22.461-2.361-31.253,0-2.809.755-4.311.973-5.26,4.25q-.963,3.56-1.346,4.911c-2.3,8.31,8.537,11.918,14.066,8.749C36.9,60.323,38.6,60.323,45.935,64.53ZM15.853,49.761a9.5,9.5,0,0,0-.4,1.119q-.987,3.551-1.365,4.9a7.9,7.9,0,0,0-.3,2.706H12.458a.774.774,0,0,1-.779-.944l1.294-6.818a1.218,1.218,0,0,1,1.143-.944Zm43.794,0H61.4a1.218,1.218,0,0,1,1.143.944l1.294,6.818a.774.774,0,0,1-.779.944H61.72a7.9,7.9,0,0,0-.321-2.687q-.382-1.365-1.365-4.911a9.5,9.5,0,0,0-.4-1.119ZM45.656,55.37l-.227-.236A2.8,2.8,0,0,1,44.74,53.3a2.5,2.5,0,0,1,2.72-2.6,2.833,2.833,0,0,1,2.361,1.454,2.578,2.578,0,0,1,2.361-1.27,2.662,2.662,0,0,1,.434.052A2.876,2.876,0,0,1,54.869,53.3a3.3,3.3,0,0,1,.033.434,2.616,2.616,0,0,1-.685,1.78l-.227.217-3.423,3.305a1.053,1.053,0,0,1-1.483-.061l-3.423-3.555ZM19.611,56.39a.71.71,0,0,1-.085-1.417l2.866-.179,1.941-3.9a.7.7,0,0,1,.944-.312.67.67,0,0,1,.335.359h0l2.158,5.194,1.61-3.574a.7.7,0,0,1,.944-.349.666.666,0,0,1,.312.279l1.015,1.605,2.616-.165a.71.71,0,1,1,.085,1.417l-3.022.189h0a.689.689,0,0,1-.623-.331l-.567-.869-1.733,3.848a.708.708,0,0,1-.387.4.7.7,0,0,1-.921-.382L24.9,52.91l-1.417,2.833a.708.708,0,0,1-.609.434Z" transform="translate(-6.154 -23.673)" fill="#fff" fill-rule="evenodd"/>
      </g>
    </g>
    <g id="Group_824" data-name="Group 824">
      <path id="Path_850" data-name="Path 850" d="M5.94-8.9v3.5A2.706,2.706,0,0,0,3.72-6.42,3.087,3.087,0,0,0,.5-3.18,3.1,3.1,0,0,0,3.72.072a2.687,2.687,0,0,0,2.268-1.08V0h1.1V-8.9ZM3.816-.936A2.106,2.106,0,0,1,1.668-3.18,2.1,2.1,0,0,1,3.816-5.412,2.093,2.093,0,0,1,5.952-3.18,2.1,2.1,0,0,1,3.816-.936ZM15.024-3.144A3.067,3.067,0,0,0,11.88-6.42,3.115,3.115,0,0,0,8.688-3.18,3.184,3.184,0,0,0,12.108.072,3.192,3.192,0,0,0,14.616-.96L13.98-1.7a2.375,2.375,0,0,1-1.836.768A2.154,2.154,0,0,1,9.84-2.8H15C15.012-2.9,15.024-3.048,15.024-3.144Zm-3.144-2.3a1.983,1.983,0,0,1,2.04,1.824H9.84A1.982,1.982,0,0,1,11.88-5.448Zm5.844.156V-6.36h-1.1V0h1.152V-3.168a1.9,1.9,0,0,1,2-2.148,2.034,2.034,0,0,1,.264.012V-6.42A2.428,2.428,0,0,0,17.724-5.292Zm3.3,2.5h3.228v-1H21.024ZM33.984-6.42a2.866,2.866,0,0,0-2.448,1.176A2.354,2.354,0,0,0,29.328-6.42a2.578,2.578,0,0,0-2.2,1.008V-6.36h-1.1V0H27.18V-3.276a1.847,1.847,0,0,1,1.908-2.112c1.044,0,1.644.612,1.644,1.86V0h1.152V-3.276a1.847,1.847,0,0,1,1.908-2.112c1.044,0,1.644.612,1.644,1.86V0h1.152V-3.66A2.439,2.439,0,0,0,33.984-6.42ZM41.472.072a3.164,3.164,0,0,0,3.3-3.252,3.155,3.155,0,0,0-3.3-3.24A3.165,3.165,0,0,0,38.16-3.18,3.174,3.174,0,0,0,41.472.072Zm0-1.008A2.106,2.106,0,0,1,39.324-3.18a2.1,2.1,0,0,1,2.148-2.232A2.087,2.087,0,0,1,43.608-3.18,2.1,2.1,0,0,1,41.472-.936ZM51.216-8.9v3.5A2.706,2.706,0,0,0,49-6.42,3.087,3.087,0,0,0,45.78-3.18,3.1,3.1,0,0,0,49,.072a2.687,2.687,0,0,0,2.268-1.08V0h1.1V-8.9ZM49.092-.936A2.106,2.106,0,0,1,46.944-3.18a2.1,2.1,0,0,1,2.148-2.232A2.093,2.093,0,0,1,51.228-3.18,2.1,2.1,0,0,1,49.092-.936ZM60.3-3.144A3.067,3.067,0,0,0,57.156-6.42a3.115,3.115,0,0,0-3.192,3.24A3.184,3.184,0,0,0,57.384.072,3.192,3.192,0,0,0,59.892-.96L59.256-1.7a2.375,2.375,0,0,1-1.836.768,2.154,2.154,0,0,1-2.3-1.86h5.16C60.288-2.9,60.3-3.048,60.3-3.144Zm-3.144-2.3A1.983,1.983,0,0,1,59.2-3.624h-4.08A1.982,1.982,0,0,1,57.156-5.448ZM63-5.292V-6.36H61.9V0h1.152V-3.168a1.9,1.9,0,0,1,2-2.148,2.034,2.034,0,0,1,.264.012V-6.42A2.428,2.428,0,0,0,63-5.292ZM70.128-6.42A2.726,2.726,0,0,0,67.836-5.4v-.96h-1.1V0h1.152V-3.276A1.889,1.889,0,0,1,69.9-5.388c1.092,0,1.716.612,1.716,1.86V0h1.152V-3.66A2.464,2.464,0,0,0,70.128-6.42Zm6.6,6.492c1.692,0,2.748-.732,2.748-1.884,0-2.472-4.032-1.248-4.032-2.748,0-.5.492-.876,1.5-.876a3.321,3.321,0,0,1,1.836.5l.492-.912a4.628,4.628,0,0,0-2.316-.576c-1.632,0-2.652.768-2.652,1.908,0,2.532,4.02,1.3,4.02,2.724,0,.54-.444.864-1.512.864a4.087,4.087,0,0,1-2.232-.66l-.48.912A4.59,4.59,0,0,0,76.728.072Zm7.4-1.272a1.451,1.451,0,0,1-.9.3.937.937,0,0,1-1-1.068V-5.412H84.06V-6.36H82.236V-7.752H81.084V-6.36H80v.948h1.08V-1.92A1.815,1.815,0,0,0,83.1.072a2.173,2.173,0,0,0,1.392-.444Zm7.284-1.944A3.067,3.067,0,0,0,88.272-6.42,3.115,3.115,0,0,0,85.08-3.18,3.184,3.184,0,0,0,88.5.072,3.192,3.192,0,0,0,91.008-.96L90.372-1.7a2.375,2.375,0,0,1-1.836.768,2.154,2.154,0,0,1-2.3-1.86h5.16C91.4-2.9,91.416-3.048,91.416-3.144Zm-3.144-2.3a1.983,1.983,0,0,1,2.04,1.824h-4.08A1.982,1.982,0,0,1,88.272-5.448ZM92.724-2.8h3.228v-1H92.724Zm11.2-5.6v6.264L98.88-8.4H97.9V0h1.2V-6.264L104.136,0h.984V-8.4ZM110.2.072a3.164,3.164,0,0,0,3.3-3.252,3.155,3.155,0,0,0-3.3-3.24,3.165,3.165,0,0,0-3.312,3.24A3.174,3.174,0,0,0,110.2.072Zm0-1.008a2.106,2.106,0,0,1-2.148-2.244A2.1,2.1,0,0,1,110.2-5.412a2.087,2.087,0,0,1,2.136,2.232A2.1,2.1,0,0,1,110.2-.936Zm8.112-.264a1.451,1.451,0,0,1-.9.3.937.937,0,0,1-1-1.068V-5.412h1.824V-6.36h-1.824V-7.752H115.26V-6.36h-1.08v.948h1.08V-1.92A1.815,1.815,0,0,0,117.276.072a2.173,2.173,0,0,0,1.392-.444Zm5.148-5.22a2.758,2.758,0,0,0-2.244.96V-8.9H120.06V0h1.152V-3.276a1.889,1.889,0,0,1,2.016-2.112c1.092,0,1.716.612,1.716,1.86V0H126.1V-3.66A2.464,2.464,0,0,0,123.456-6.42Zm10.56,3.276a3.067,3.067,0,0,0-3.144-3.276,3.115,3.115,0,0,0-3.192,3.24A3.184,3.184,0,0,0,131.1.072,3.192,3.192,0,0,0,133.608-.96l-.636-.744a2.375,2.375,0,0,1-1.836.768,2.154,2.154,0,0,1-2.3-1.86h5.16C134-2.9,134.016-3.048,134.016-3.144Zm-3.144-2.3a1.983,1.983,0,0,1,2.04,1.824h-4.08A1.982,1.982,0,0,1,130.872-5.448ZM135.612,0h1.152V-8.9h-1.152Zm5.676-8.028a1.492,1.492,0,0,1,.888.3l.348-.876a2.149,2.149,0,0,0-1.3-.372,1.911,1.911,0,0,0-2.1,2.052v.564h-1.08v.948h1.08V0h1.152V-5.412H142.1V-6.36h-1.848v-.552C140.256-7.644,140.6-8.028,141.288-8.028Zm7.56,4.884A3.067,3.067,0,0,0,145.7-6.42a3.115,3.115,0,0,0-3.192,3.24,3.184,3.184,0,0,0,3.42,3.252A3.192,3.192,0,0,0,148.44-.96L147.8-1.7a2.375,2.375,0,0,1-1.836.768,2.154,2.154,0,0,1-2.3-1.86h5.16C148.836-2.9,148.848-3.048,148.848-3.144Zm-3.144-2.3a1.983,1.983,0,0,1,2.04,1.824h-4.08A1.982,1.982,0,0,1,145.7-5.448Zm5.844.156V-6.36h-1.1V0H151.6V-3.168a1.9,1.9,0,0,1,2-2.148,2.034,2.034,0,0,1,.264.012V-6.42A2.428,2.428,0,0,0,151.548-5.292ZM160.14,0h1.416l-2.94-3.732,2.676-2.628H159.9l-3.468,3.168V-8.9H155.28V0h1.152V-1.74l1.32-1.224Zm7.188-6.36v3.288A1.872,1.872,0,0,1,165.36-.96c-1.092,0-1.716-.624-1.716-1.872V-6.36h-1.152V-2.7A2.5,2.5,0,0,0,165.228.072a2.588,2.588,0,0,0,2.16-1.032V0h1.092V-6.36Zm4.452,1.068V-6.36h-1.1V0h1.152V-3.168a1.9,1.9,0,0,1,2-2.148,2.034,2.034,0,0,1,.264.012V-6.42A2.428,2.428,0,0,0,171.78-5.292Zm5.6,5.364c1.692,0,2.748-.732,2.748-1.884,0-2.472-4.032-1.248-4.032-2.748,0-.5.492-.876,1.5-.876a3.321,3.321,0,0,1,1.836.5l.492-.912a4.628,4.628,0,0,0-2.316-.576c-1.632,0-2.652.768-2.652,1.908,0,2.532,4.02,1.3,4.02,2.724,0,.54-.444.864-1.512.864a4.087,4.087,0,0,1-2.232-.66l-.48.912A4.59,4.59,0,0,0,177.384.072Zm4.464,0a.8.8,0,0,0,.792-.828.789.789,0,0,0-.792-.816.8.8,0,0,0-.816.816A.812.812,0,0,0,181.848.072Zm5.076,0A2.845,2.845,0,0,0,189.516-1.3l-.876-.552a1.983,1.983,0,0,1-1.728.912,2.107,2.107,0,0,1-2.184-2.244,2.111,2.111,0,0,1,2.184-2.232,1.983,1.983,0,0,1,1.728.912l.876-.564a2.836,2.836,0,0,0-2.592-1.356,3.178,3.178,0,0,0-3.36,3.24A3.187,3.187,0,0,0,186.924.072Zm7.392-6.492a2.758,2.758,0,0,0-2.244.96V-8.9H190.92V0h1.152V-3.276a1.889,1.889,0,0,1,2.016-2.112c1.092,0,1.716.612,1.716,1.86V0h1.152V-3.66A2.464,2.464,0,0,0,194.316-6.42Z" transform="translate(890 12646.324)" fill="#fff"/>
      <path id="Path_851" data-name="Path 851" d="M12.995-16.1v9.775l-8-9.775H1.909V0h3.68V-9.775L13.616,0h3.059V-16.1ZM26.128.184c3.933,0,6.785-2.645,6.785-6.371s-2.852-6.371-6.785-6.371S19.32-9.913,19.32-6.187,22.195.184,26.128.184Zm0-2.944a3.14,3.14,0,0,1-3.174-3.427,3.14,3.14,0,0,1,3.174-3.427,3.123,3.123,0,0,1,3.151,3.427A3.123,3.123,0,0,1,26.128-2.76ZM42.32-3.128a2.418,2.418,0,0,1-1.449.46A1.443,1.443,0,0,1,39.33-4.3V-9.338h3.082V-12.1H39.33v-3.013H35.742V-12.1H33.833v2.76h1.909v5.083c0,2.944,1.7,4.439,4.623,4.439A5.128,5.128,0,0,0,43.286-.6Zm10.511-9.43A5.439,5.439,0,0,0,48.9-11.086v-5.98H45.31V0H48.9V-6.118c0-2.277,1.242-3.335,2.967-3.335,1.587,0,2.507.92,2.507,2.921V0H57.96V-7.084C57.96-10.856,55.752-12.558,52.831-12.558ZM73.692-6.141a6.126,6.126,0,0,0-6.44-6.417,6.3,6.3,0,0,0-6.6,6.371c0,3.68,2.783,6.371,7.061,6.371a6.481,6.481,0,0,0,5.106-2l-1.909-2.07a4.2,4.2,0,0,1-3.105,1.2,3.3,3.3,0,0,1-3.542-2.484h9.361C73.646-5.474,73.692-5.865,73.692-6.141Zm-6.417-3.7a2.94,2.94,0,0,1,3.036,2.576h-6.1A2.929,2.929,0,0,1,67.275-9.844ZM76.084,0h3.588V-17.066H76.084ZM86.94-12.627c0-1.219.575-1.794,1.633-1.794a2.512,2.512,0,0,1,1.449.437l.943-2.6a5.086,5.086,0,0,0-2.737-.667c-3.082,0-4.784,1.817-4.784,4.6v.552H81.535v2.76h1.909V0h3.588V-9.338h3.082V-12.1H86.94Zm16.7,6.486a6.126,6.126,0,0,0-6.44-6.417,6.3,6.3,0,0,0-6.6,6.371c0,3.68,2.783,6.371,7.061,6.371a6.481,6.481,0,0,0,5.106-2l-1.909-2.07a4.2,4.2,0,0,1-3.105,1.2,3.3,3.3,0,0,1-3.542-2.484h9.361C103.592-5.474,103.638-5.865,103.638-6.141Zm-6.417-3.7a2.94,2.94,0,0,1,3.036,2.576h-6.1A2.929,2.929,0,0,1,97.221-9.844Zm12.236-.9v-1.633H106.03V0h3.588V-5.842c0-2.369,1.311-3.45,3.289-3.45.276,0,.506.023.805.046v-3.312A4.994,4.994,0,0,0,109.457-10.741ZM125.074,0h4.347l-5.612-7.13,5.152-5.244h-4.278l-5.244,4.968v-9.66h-3.588V0h3.588V-3.151l1.725-1.7Zm14.375-12.374v6.118c0,2.277-1.2,3.335-2.852,3.335-1.587,0-2.507-.92-2.507-2.99v-6.463H130.5v6.992c0,3.818,2.185,5.566,5.29,5.566a5.006,5.006,0,0,0,3.841-1.656V0h3.4V-12.374Zm10.35,1.633v-1.633h-3.427V0h3.588V-5.842c0-2.369,1.311-3.45,3.289-3.45.276,0,.506.023.8.046v-3.312A4.994,4.994,0,0,0,149.8-10.741ZM160.4.184c3.7,0,5.842-1.633,5.842-3.933,0-4.876-7.475-2.829-7.475-4.945,0-.644.69-1.15,2.3-1.15a7.106,7.106,0,0,1,3.565.92l1.2-2.553a10.175,10.175,0,0,0-4.761-1.081c-3.611,0-5.727,1.656-5.727,4,0,4.945,7.475,2.875,7.475,4.9,0,.69-.621,1.127-2.277,1.127a8.466,8.466,0,0,1-4.3-1.2l-1.2,2.576A10.623,10.623,0,0,0,160.4.184Zm18.906-3.22,3.7-3.5c2.254-2.093,2.691-3.519,2.691-5.083,0-2.921-2.392-4.761-5.98-4.761a7.478,7.478,0,0,0-6.394,2.99l2.714,1.748a3.937,3.937,0,0,1,3.335-1.61c1.7,0,2.576.736,2.576,2,0,.782-.253,1.61-1.679,2.967l-6.21,5.865V0h12.167V-3.036Zm11.04,3.22a2.2,2.2,0,0,0,2.231-2.254,2.144,2.144,0,0,0-2.231-2.208,2.144,2.144,0,0,0-2.231,2.208A2.2,2.2,0,0,0,190.348.184Zm10.281.092c3.979,0,6.9-3.013,6.9-8.326s-2.921-8.326-6.9-8.326c-3.956,0-6.9,3.013-6.9,8.326S196.673.276,200.629.276Zm0-3.151c-1.84,0-3.128-1.518-3.128-5.175s1.288-5.175,3.128-5.175c1.863,0,3.151,1.518,3.151,5.175S202.492-2.875,200.629-2.875Z" transform="translate(890 12627)" fill="#fff"/>
    </g>
  </g>
</svg>
