<svg xmlns="http://www.w3.org/2000/svg" width="453.208" height="161.214" viewBox="0 0 453.208 161.214">
  <g id="img-top-text" transform="translate(-554 -215)">
    <g id="Path_25" data-name="Path 25" transform="translate(569.586 215)" fill="#fff">
      <path d="M 428.1327209472656 159.2143707275391 L 16.01288986206055 159.2143707275391 C 11.88312530517578 159.2143707275391 8.52330207824707 155.1484222412109 8.52330207824707 150.1506652832031 L 8.52330207824707 31.06136894226074 C 8.52330207824707 30.19631004333496 8.52330207824707 29.30178070068359 1.363419771194458 19.41337013244629 C -2.433227300643921 14.16989898681641 -7.095521450042725 7.993781089782715 -10.18063926696777 3.906957626342773 C -10.65676021575928 3.276232481002808 -11.12588691711426 2.654775857925415 -11.56174564361572 2.076446056365967 C -10.68479251861572 2.079319715499878 -9.625691413879395 2.080781221389771 -8.344874382019043 2.080781221389771 C -2.589109659194946 2.080781221389771 5.373831748962402 2.044840097427368 10.64312553405762 2.021016597747803 C 13.24012565612793 2.009310722351074 15.29141998291016 2.000016450881958 16.01288986206055 2.000016450881958 L 428.1327209472656 2.000016450881958 C 432.2624816894531 2.000016450881958 435.622314453125 6.065957546234131 435.622314453125 11.06372261047363 L 435.622314453125 150.1506652832031 C 435.622314453125 155.1484222412109 432.2624816894531 159.2143707275391 428.1327209472656 159.2143707275391 Z M -15.7032413482666 1.506288647651672 L -17.24195861816406 0.7539147138595581 L -15.08887481689453 -1.929395198822021 C -14.51499557495117 -1.785755515098572 -14.04605388641357 -1.389279127120972 -13.79220294952393 -0.8753177523612976 L -15.7032413482666 1.506288647651672 Z" stroke="none"/>
      <path d="M 16.01287841796875 4.000015258789063 C 15.2958984375 4.000015258789063 13.24649047851563 4.009246826171875 10.65176391601563 4.021011352539063 C 5.62115478515625 4.043701171875 -1.864166259765625 4.077529907226563 -7.5439453125 4.08056640625 C -4.5074462890625 8.105224609375 -0.417938232421875 13.54302978515625 2.9840087890625 18.24142456054688 C 5.093994140625 21.15548706054688 6.746490478515625 23.51925659179688 7.895416259765625 25.26707458496094 C 9.93389892578125 28.36795043945313 10.5233154296875 29.6676025390625 10.5233154296875 31.06137084960938 L 10.5233154296875 150.1506652832031 C 10.5233154296875 152.1511993408203 11.16806030273438 154.0046691894531 12.33889770507813 155.3697204589844 C 13.35919189453125 156.5592498779297 14.66400146484375 157.2143707275391 16.01287841796875 157.2143707275391 L 428.1327209472656 157.2143707275391 C 429.4816589355469 157.2143707275391 430.7864074707031 156.5592498779297 431.8067016601563 155.3697204589844 C 432.9775390625 154.0046691894531 433.622314453125 152.1511993408203 433.622314453125 150.1506652832031 L 433.622314453125 11.063720703125 C 433.622314453125 9.063186645507813 432.9775390625 7.209671020507813 431.8067016601563 5.84466552734375 C 430.7864074707031 4.655136108398438 429.4816589355469 4.000015258789063 428.1327209472656 4.000015258789063 L 16.01287841796875 4.000015258789063 M -15.57916259765625 1.52587890625e-05 C -15.57821655273438 0.0028076171875 -15.57666015625 0.00640869140625 -15.574462890625 0.0107879638671875 C -15.58822631835938 0.007354736328125 -15.58993530273438 0.0037689208984375 -15.57916259765625 1.52587890625e-05 Z M 16.01287841796875 1.52587890625e-05 L 428.1327209472656 1.52587890625e-05 C 433.3737182617188 1.52587890625e-05 437.622314453125 4.953369140625 437.622314453125 11.063720703125 L 437.622314453125 150.1506652832031 C 437.622314453125 156.2609558105469 433.3737182617188 161.2143707275391 428.1327209472656 161.2143707275391 L 16.01287841796875 161.2143707275391 C 10.77194213867188 161.2143707275391 6.5233154296875 156.2609558105469 6.5233154296875 150.1506652832031 L 6.5233154296875 31.06137084960938 C 6.5233154296875 28.76406860351563 -15.168212890625 0.823455810546875 -15.574462890625 0.0107879638671875 C -15.36587524414063 0.06298828125 -12.39532470703125 0.080780029296875 -8.344879150390625 0.080780029296875 C 0.291290283203125 0.080780029296875 13.83956909179688 1.52587890625e-05 16.01287841796875 1.52587890625e-05 Z" stroke="none" fill="#313131"/>
    </g>
    <text id="_" data-name="😴😴😴" transform="translate(832.364 331.607)" fill="#313131" font-size="36" font-family="SegoeUIEmoji, Segoe UI Emoji"><tspan x="0" y="0">😴😴😴</tspan></text>
    <path id="Path_852" data-name="Path 852" d="M18.784-22.4V-7.232L6.432-22.4H3.008V0H7.136V-15.168L19.488,0h3.424V-22.4ZM36.224.224c5.312,0,9.12-3.648,9.12-8.768s-3.808-8.736-9.12-8.736c-5.248,0-9.088,3.616-9.088,8.736S30.976.224,36.224.224Zm0-3.424a4.97,4.97,0,0,1-5.056-5.344,4.97,4.97,0,0,1,5.056-5.344,4.977,4.977,0,0,1,5.088,5.344A4.977,4.977,0,0,1,36.224-3.2Zm22.112-.576a3.6,3.6,0,0,1-2.24.7c-1.536,0-2.368-.9-2.368-2.56V-13.76H58.3v-3.2H53.728v-3.9h-4v3.9H46.912v3.2h2.816v8.224c0,3.776,2.144,5.76,5.888,5.76a6.285,6.285,0,0,0,3.84-1.152Zm14.112-13.5a7.617,7.617,0,0,0-5.7,2.176v-8.64h-4V0h4V-8.64c0-3.424,1.92-5.152,4.768-5.152,2.56,0,4.064,1.472,4.064,4.512V0h4V-9.792C79.584-14.944,76.544-17.28,72.448-17.28ZM100.9-8.448c0-5.344-3.648-8.832-8.64-8.832a8.5,8.5,0,0,0-8.832,8.736c0,5.088,3.712,8.768,9.44,8.768a8.662,8.662,0,0,0,6.88-2.784L97.6-5.024a6.124,6.124,0,0,1-4.64,1.856c-2.976,0-5.056-1.6-5.536-4.1h13.408C100.864-7.648,100.9-8.128,100.9-8.448Zm-8.64-5.632a4.652,4.652,0,0,1,4.832,4.16h-9.7A4.723,4.723,0,0,1,92.256-14.08ZM104.736,0h4V-23.744h-4Zm16.192-20.736a3.939,3.939,0,0,1,2.208.7l1.12-3.008a6.4,6.4,0,0,0-3.616-.928c-3.968,0-6.112,2.336-6.112,5.92v1.088h-2.816v3.2h2.816V0h4V-13.76H123.1v-3.2h-4.7v-1.024C118.4-19.808,119.264-20.736,120.928-20.736ZM141.6-8.448c0-5.344-3.648-8.832-8.64-8.832a8.5,8.5,0,0,0-8.832,8.736c0,5.088,3.712,8.768,9.44,8.768a8.661,8.661,0,0,0,6.88-2.784L138.3-5.024a6.124,6.124,0,0,1-4.64,1.856c-2.976,0-5.056-1.6-5.536-4.1h13.408C141.568-7.648,141.6-8.128,141.6-8.448Zm-8.64-5.632a4.652,4.652,0,0,1,4.832,4.16h-9.7A4.723,4.723,0,0,1,132.96-14.08Zm16.288-.512v-2.5H145.44V0h4V-8.288c0-3.488,1.92-5.28,4.96-5.28a5.078,5.078,0,0,1,.928.1V-17.28C152.48-17.28,150.4-16.384,149.248-14.592ZM171.616,0h4.864l-7.808-9.92,7.136-7.168h-4.8l-8.288,7.68V-23.744h-4V0h4V-4.512L165.7-7.328ZM191.3-17.088v8.64c0,3.424-1.888,5.152-4.672,5.152-2.528,0-4-1.472-4-4.576v-9.216h-4v9.76c0,5.152,2.976,7.552,7.36,7.552a6.981,6.981,0,0,0,5.5-2.4V0H195.3V-17.088Zm13.056,2.5v-2.5h-3.808V0h4V-8.288c0-3.488,1.92-5.28,4.96-5.28a5.078,5.078,0,0,1,.928.1V-17.28C207.584-17.28,205.5-16.384,204.352-14.592ZM219.168.224c4.8,0,7.744-2.08,7.744-5.28,0-6.688-10.56-3.616-10.56-7.072,0-1.12,1.152-1.92,3.584-1.92a9.354,9.354,0,0,1,4.9,1.28l1.536-3.04a13.6,13.6,0,0,0-6.4-1.472c-4.608,0-7.52,2.112-7.52,5.344,0,6.816,10.56,3.744,10.56,7.008,0,1.184-1.056,1.888-3.584,1.888a11.5,11.5,0,0,1-5.952-1.7L211.936-1.7A13.577,13.577,0,0,0,219.168.224Zm36.1-8.672c0-5.344-3.648-8.832-8.64-8.832a8.5,8.5,0,0,0-8.832,8.736c0,5.088,3.712,8.768,9.44,8.768a8.661,8.661,0,0,0,6.88-2.784l-2.144-2.464a6.124,6.124,0,0,1-4.64,1.856c-2.976,0-5.056-1.6-5.536-4.1H255.2C255.232-7.648,255.264-8.128,255.264-8.448Zm-8.64-5.632a4.652,4.652,0,0,1,4.832,4.16h-9.7A4.723,4.723,0,0,1,246.624-14.08Zm17.76,14.3c4.8,0,7.744-2.08,7.744-5.28,0-6.688-10.56-3.616-10.56-7.072,0-1.12,1.152-1.92,3.584-1.92a9.354,9.354,0,0,1,4.9,1.28l1.536-3.04a13.6,13.6,0,0,0-6.4-1.472c-4.608,0-7.52,2.112-7.52,5.344,0,6.816,10.56,3.744,10.56,7.008,0,1.184-1.056,1.888-3.584,1.888a11.5,11.5,0,0,1-5.952-1.7L257.152-1.7A13.577,13.577,0,0,0,264.384.224Zm19.04,0c3.328,0,5.984-1.44,7.3-4l-3.072-1.792A4.836,4.836,0,0,1,283.392-3.2a5,5,0,0,1-5.184-5.344,5.015,5.015,0,0,1,5.184-5.344,4.836,4.836,0,0,1,4.256,2.368l3.072-1.792c-1.312-2.592-3.968-3.968-7.3-3.968-5.408,0-9.248,3.616-9.248,8.736S278.016.224,283.424.224Zm20.288-17.5a7.617,7.617,0,0,0-5.7,2.176v-8.64h-4V0h4V-8.64c0-3.424,1.92-5.152,4.768-5.152,2.56,0,4.064,1.472,4.064,4.512V0h4V-9.792C310.848-14.944,307.808-17.28,303.712-17.28ZM14.784,30.912,9.312,43.584,4,30.912H-.16L7.168,48H11.3l7.328-17.088ZM28.32,48.224c5.312,0,9.12-3.648,9.12-8.768s-3.808-8.736-9.12-8.736c-5.248,0-9.088,3.616-9.088,8.736S23.072,48.224,28.32,48.224Zm0-3.424a4.97,4.97,0,0,1-5.056-5.344,5.079,5.079,0,1,1,10.144,0A4.977,4.977,0,0,1,28.32,44.8ZM41.28,48h4V24.256h-4Zm9.248,0h4V24.256h-4Zm18.08,0h4V24.256h-4ZM84.384,30.72a12.015,12.015,0,0,0-7.232,2.112l1.568,2.912a8.46,8.46,0,0,1,5.184-1.7c2.848,0,4.256,1.376,4.256,3.712v.256H83.744c-5.184,0-7.1,2.24-7.1,5.088,0,2.976,2.464,5.12,6.368,5.12,2.56,0,4.416-.832,5.376-2.3V48H92.16V37.984C92.16,33.056,89.312,30.72,84.384,30.72ZM83.84,45.312c-2.048,0-3.264-.928-3.264-2.368,0-1.248.736-2.272,3.456-2.272H88.16v1.984A4.356,4.356,0,0,1,83.84,45.312ZM106.976,30.72a7.43,7.43,0,0,0-5.888,2.4V30.912H97.28V48h4V39.36c0-3.424,1.92-5.152,4.768-5.152,2.56,0,4.064,1.472,4.064,4.512V48h4V38.208C114.112,33.056,111.072,30.72,106.976,30.72Zm25.536.192v2.272a7.4,7.4,0,0,0-5.92-2.464c-4.9,0-8.64,3.264-8.64,8.224s3.744,8.288,8.64,8.288a7.522,7.522,0,0,0,5.728-2.272v.9c0,3.456-1.664,5.184-5.44,5.184a10.322,10.322,0,0,1-6.3-2.048L118.784,52c1.952,1.6,5.12,2.432,8.32,2.432,5.984,0,9.216-2.816,9.216-9.024v-14.5ZM127.2,43.84c-3.04,0-5.216-1.984-5.216-4.9,0-2.88,2.176-4.832,5.216-4.832,3.008,0,5.184,1.952,5.184,4.832A4.835,4.835,0,0,1,127.2,43.84Zm37.472-12.928-4.64,12.672-4.608-12.672h-3.36l-4.7,12.608-4.512-12.608h-3.776L145.344,48h3.84l4.48-11.776L158.08,48h3.84l6.3-17.088Zm8.32-2.816a2.456,2.456,0,0,0,2.56-2.5,2.382,2.382,0,0,0-2.56-2.3,2.4,2.4,0,1,0,0,4.8ZM170.976,48h4V30.912h-4Zm9.248,0h4V24.256h-4Zm11.264-19.9a2.456,2.456,0,0,0,2.56-2.5,2.382,2.382,0,0,0-2.56-2.3,2.4,2.4,0,1,0,0,4.8ZM189.472,48h4V30.912h-4Zm22.4-17.088v2.272a7.4,7.4,0,0,0-5.92-2.464c-4.9,0-8.64,3.264-8.64,8.224s3.744,8.288,8.64,8.288a7.522,7.522,0,0,0,5.728-2.272v.9c0,3.456-1.664,5.184-5.44,5.184a10.322,10.322,0,0,1-6.3-2.048L198.144,52c1.952,1.6,5.12,2.432,8.32,2.432,5.984,0,9.216-2.816,9.216-9.024v-14.5ZM206.56,43.84c-3.04,0-5.216-1.984-5.216-4.9,0-2.88,2.176-4.832,5.216-4.832,3.008,0,5.184,1.952,5.184,4.832A4.835,4.835,0,0,1,206.56,43.84Z" transform="translate(613.523 280.375)" fill="#313131"/>
  </g>
</svg>
