<svg xmlns="http://www.w3.org/2000/svg" xmlns:xlink="http://www.w3.org/1999/xlink" width="537" height="163" viewBox="0 0 537 163">
  <defs>
    <clipPath id="clip-path">
      <rect id="Rectangle_2" data-name="Rectangle 2" width="537" height="163" transform="translate(-8 -18)"/>
    </clipPath>
  </defs>
  <g id="img-top-text-2-V4" transform="translate(8 18)" clip-path="url(#clip-path)">
    <path id="Path_9" data-name="Path 9" d="M0,0H537V159.921H0Z" transform="translate(-8 -16)" fill="#fff"/>
    <g id="Gruppe_821" data-name="Gruppe 821" transform="translate(0.333 -18.039)">
      <g id="Pfad_26" data-name="Pfad 26" transform="translate(0 0)">
        <path id="Path_8" data-name="Path 8" d="M-231.862,139.59a5.348,5.348,0,0,1-3.67-1.409,3.8,3.8,0,0,1-1.237-2.7v-145a3.8,3.8,0,0,1,1.237-2.7,5.35,5.35,0,0,1,3.67-1.408H260.945a5.35,5.35,0,0,1,3.67,1.408,3.8,3.8,0,0,1,1.237,2.7V110.272c0,1.63,0,2.3,8.021,14.37,3.32,5,7.1,10.545,10.067,14.887-5.623,0-12.968.029-17.912.046-2.565.009-4.419.016-5.083.016H-231.862m0,4.37H260.945c2.04,0,15.353-.062,23.857-.062,4,0,6.942.014,7.134.054-.37-.691-22.084-31.919-22.084-33.681V-9.517A8.7,8.7,0,0,0,260.945-18H-231.862a8.7,8.7,0,0,0-8.907,8.483v145A8.7,8.7,0,0,0-231.862,143.961Zm523.8,0c.009,0,.008-.005,0-.008Z" transform="translate(233.769 18)" fill="#313131"/>
      </g>
      <text id="Mach_de_Nothelferkurs_2.0_" data-name="Mach de Nothelferkurs 2.0 😜☝️👏" transform="translate(25.884 116.071)" fill="#313131" font-size="36" font-family="SegoeUIEmoji, Segoe UI Emoji"><tspan x="0" y="0">😜☝️👏</tspan></text>
      <path id="Mach_de_Nothelferkurs_2.0_2" data-name="Mach de Nothelferkurs 2.0 😜☝️👏" d="M27.52.47l-.032-22.839H24.064L15.328-7.23l-8.9-15.139H3.008V.47H6.976V-14.473L14.336-2.14h1.856l7.36-12.529L23.584.47ZM39.712-17.149A11.85,11.85,0,0,0,32.48-15l1.568,2.969a8.353,8.353,0,0,1,5.184-1.729c2.848,0,4.256,1.4,4.256,3.785v.261H39.072c-5.184,0-7.1,2.284-7.1,5.188,0,3.034,2.464,5.22,6.368,5.22,2.56,0,4.416-.848,5.376-2.349V.47h3.776V-9.742C47.488-14.767,44.64-17.149,39.712-17.149ZM39.168-2.271c-2.048,0-3.264-.946-3.264-2.414C35.9-5.958,36.64-7,39.36-7h4.128v2.023A4.35,4.35,0,0,1,39.168-2.271ZM60.608.7C63.936.7,66.592-.77,67.9-3.38L64.832-5.207a4.815,4.815,0,0,1-4.256,2.414c-2.944,0-5.184-2.056-5.184-5.449a5.067,5.067,0,0,1,5.184-5.449,4.815,4.815,0,0,1,4.256,2.414L67.9-13.1c-1.312-2.643-3.968-4.046-7.3-4.046-5.408,0-9.248,3.687-9.248,8.907S55.2.7,60.608.7ZM80.9-17.149a7.539,7.539,0,0,0-5.7,2.219V-23.74h-4V.47h4V-8.339c0-3.491,1.92-5.253,4.768-5.253,2.56,0,4.064,1.5,4.064,4.6V.47h4V-9.514C88.032-14.767,84.992-17.149,80.9-17.149Zm33.792-6.591v8.94a6.934,6.934,0,0,0-5.5-2.349c-4.96,0-8.64,3.491-8.64,8.907S104.224.7,109.184.7a6.985,6.985,0,0,0,5.664-2.48V.47h3.84V-23.74ZM109.664-2.793c-2.88,0-5.088-2.121-5.088-5.449s2.208-5.449,5.088-5.449,5.088,2.121,5.088,5.449S112.544-2.793,109.664-2.793ZM140-8.144c0-5.449-3.648-9.005-8.64-9.005a8.581,8.581,0,0,0-8.832,8.907c0,5.188,3.712,8.94,9.44,8.94a8.58,8.58,0,0,0,6.88-2.839L136.7-4.653a6.063,6.063,0,0,1-4.64,1.892c-2.976,0-5.056-1.631-5.536-4.176h13.408C139.968-7.328,140-7.817,140-8.144Zm-8.64-5.742a4.682,4.682,0,0,1,4.832,4.242h-9.7A4.752,4.752,0,0,1,131.36-13.886Zm37.472-8.483V-6.9L156.48-22.369h-3.424V.47h4.128V-15L169.536.47h3.424V-22.369ZM186.272.7c5.312,0,9.12-3.72,9.12-8.94s-3.808-8.907-9.12-8.907a8.68,8.68,0,0,0-9.088,8.907A8.706,8.706,0,0,0,186.272.7Zm0-3.491c-2.88,0-5.056-2.121-5.056-5.449s2.176-5.449,5.056-5.449c2.912,0,5.088,2.121,5.088,5.449S189.184-2.793,186.272-2.793Zm22.112-.587a3.55,3.55,0,0,1-2.24.718c-1.536,0-2.368-.914-2.368-2.61V-13.56h4.576v-3.263h-4.576V-20.8h-4v3.981H196.96v3.263h2.816v8.385c0,3.85,2.144,5.873,5.888,5.873A6.2,6.2,0,0,0,209.5-.476ZM222.5-17.149a7.539,7.539,0,0,0-5.7,2.219V-23.74h-4V.47h4V-8.339c0-3.491,1.92-5.253,4.768-5.253,2.56,0,4.064,1.5,4.064,4.6V.47h4V-9.514C229.632-14.767,226.592-17.149,222.5-17.149Zm28.448,9.005c0-5.449-3.648-9.005-8.64-9.005a8.581,8.581,0,0,0-8.832,8.907c0,5.188,3.712,8.94,9.44,8.94a8.58,8.58,0,0,0,6.88-2.839l-2.144-2.512a6.063,6.063,0,0,1-4.64,1.892c-2.976,0-5.056-1.631-5.536-4.176H250.88C250.912-7.328,250.944-7.817,250.944-8.144Zm-8.64-5.742a4.682,4.682,0,0,1,4.832,4.242h-9.7A4.752,4.752,0,0,1,242.3-13.886ZM254.784.47h4V-23.74h-4Zm16.192-21.143a3.888,3.888,0,0,1,2.208.718l1.12-3.067a6.306,6.306,0,0,0-3.616-.946c-3.968,0-6.112,2.382-6.112,6.036v1.109H261.76v3.263h2.816V.47h4V-13.56h4.576v-3.263h-4.7v-1.044C268.448-19.726,269.312-20.673,270.976-20.673ZM291.648-8.144c0-5.449-3.648-9.005-8.64-9.005a8.581,8.581,0,0,0-8.832,8.907c0,5.188,3.712,8.94,9.44,8.94A8.58,8.58,0,0,0,290.5-2.14l-2.144-2.512a6.063,6.063,0,0,1-4.64,1.892c-2.976,0-5.056-1.631-5.536-4.176h13.408C291.616-7.328,291.648-7.817,291.648-8.144Zm-8.64-5.742a4.682,4.682,0,0,1,4.832,4.242h-9.7A4.752,4.752,0,0,1,283.008-13.886Zm16.288-.522v-2.545h-3.808V.47h4V-7.981c0-3.556,1.92-5.384,4.96-5.384a4.984,4.984,0,0,1,.928.1v-3.883C302.528-17.149,300.448-16.235,299.3-14.408ZM321.664.47h4.864L318.72-9.645l7.136-7.309h-4.8l-8.288,7.831V-23.74h-4V.47h4v-4.6L315.744-7Zm19.68-17.423v8.809c0,3.491-1.888,5.253-4.672,5.253-2.528,0-4-1.5-4-4.666v-9.4h-4V-7c0,5.253,2.976,7.7,7.36,7.7a6.922,6.922,0,0,0,5.5-2.447V.47h3.808V-16.953ZM354.4-14.408v-2.545h-3.808V.47h4V-7.981c0-3.556,1.92-5.384,4.96-5.384a4.984,4.984,0,0,1,.928.1v-3.883C357.632-17.149,355.552-16.235,354.4-14.408ZM369.216.7c4.8,0,7.744-2.121,7.744-5.384,0-6.819-10.56-3.687-10.56-7.211,0-1.142,1.152-1.958,3.584-1.958a9.214,9.214,0,0,1,4.9,1.305l1.536-3.1a13.386,13.386,0,0,0-6.4-1.5c-4.608,0-7.52,2.153-7.52,5.449,0,6.95,10.56,3.817,10.56,7.145,0,1.207-1.056,1.925-3.584,1.925a11.335,11.335,0,0,1-5.952-1.729l-1.536,3.1A13.38,13.38,0,0,0,369.216.7ZM393.7-3.119l5.984-5.808c3.1-2.969,3.712-4.992,3.712-7.211,0-4.046-3.136-6.558-8-6.558-3.68,0-6.784,1.4-8.512,3.785l2.912,2.284a6.271,6.271,0,0,1,5.248-2.382c2.752,0,4.16,1.207,4.16,3.3,0,1.272-.384,2.61-2.56,4.731l-8.9,8.614V.47h16.512V-3.119ZM409.472.7A2.629,2.629,0,0,0,412.1-2.01a2.59,2.59,0,0,0-2.624-2.708,2.59,2.59,0,0,0-2.624,2.708A2.629,2.629,0,0,0,409.472.7Zm14.272.1c5.344,0,9.376-4.242,9.376-11.746S429.088-22.7,423.744-22.7c-5.312,0-9.344,4.242-9.344,11.746S418.432.8,423.744.8Zm0-3.687c-3.04,0-5.152-2.545-5.152-8.059s2.112-8.059,5.152-8.059c3.072,0,5.184,2.545,5.184,8.059S426.816-2.891,423.744-2.891Z" transform="translate(30.764 66.498)" fill="#313131"/>
    </g>
  </g>
</svg>
