<svg xmlns="http://www.w3.org/2000/svg" width="406.047" height="113.135" viewBox="0 0 406.047 113.135">
  <g id="img-top-text-2" transform="translate(-960 -430)">
    <g id="Path_26" data-name="Path 26" transform="translate(961.102 430)" fill="#fff">
      <path d="M 373.9447326660156 111.1351470947266 L 7.806166172027588 111.1351470947266 C 3.997324228286743 111.1351470947266 0.8986399173736572 108.5493545532227 0.8986399173736572 105.3709335327148 L 0.8986399173736572 7.76419734954834 C 0.8986399173736572 4.585776329040527 3.997324228286743 1.999987006187439 7.806166172027588 1.999987006187439 L 373.9447326660156 1.999987006187439 C 374.6122131347656 1.999987006187439 376.4671020507813 2.005986928939819 379.034423828125 2.014355421066284 C 384.2335205078125 2.031197547912598 392.0904235839844 2.056671142578125 397.8015441894531 2.056671142578125 C 399.0464477539063 2.056671142578125 400.0773010253906 2.055617332458496 400.9327697753906 2.053597211837769 C 400.7290649414063 2.326205253601074 400.5184326171875 2.608053922653198 400.3035888671875 2.895513296127319 C 397.1981811523438 7.050671100616455 392.5051574707031 13.32998657226563 388.4905395507813 18.85803985595703 C 386.2701721191406 21.91540718078613 384.5318603515625 24.36703872680664 383.3238525390625 26.14482879638672 C 381.0861206054688 29.43803977966309 380.8523254394531 30.10288238525391 380.8523254394531 30.83477592468262 L 380.8523254394531 105.3709335327148 C 380.8523254394531 108.5493545532227 377.7536010742188 111.1351470947266 373.9447326660156 111.1351470947266 Z M 405.0727844238281 1.630799174308777 L 403.2149963378906 -0.9935206770896912 C 403.4981079101563 -1.482142090797424 403.9821166992188 -1.846037626266479 404.5578918457031 -1.956855177879333 L 406.5858459472656 0.9078591465950012 L 405.0727844238281 1.630799174308777 Z" stroke="none"/>
      <path d="M 7.806182861328125 4.000007629394531 C 6.413726806640625 4.000007629394531 5.075958251953125 4.469955444335938 4.135833740234375 5.289398193359375 C 3.673797607421875 5.692176818847656 2.89862060546875 6.549232482910156 2.89862060546875 7.764175415039063 L 2.89862060546875 105.3709564208984 C 2.89862060546875 106.5858993530273 3.673797607421875 107.4429550170898 4.135833740234375 107.8457336425781 C 5.075958251953125 108.6651763916016 6.413726806640625 109.135124206543 7.806182861328125 109.135124206543 L 373.9447326660156 109.135124206543 C 375.3371887207031 109.135124206543 376.6750183105469 108.6651763916016 377.6151123046875 107.8457336425781 C 378.0771789550781 107.4429550170898 378.8523559570313 106.5858993530273 378.8523559570313 105.3709564208984 L 378.8523559570313 30.83478546142578 C 378.8523559570313 29.34328460693359 378.8523559570313 28.7259521484375 386.8727416992188 17.68212127685547 C 390.1929321289063 13.11036682128906 393.9728088378906 8.030181884765625 396.939697265625 4.056495666503906 C 391.3173217773438 4.054183959960938 383.9715576171875 4.030342102050781 379.0279541015625 4.01434326171875 C 376.4625244140625 4.006011962890625 374.6089477539063 4.000007629394531 373.9447326660156 4.000007629394531 L 7.806182861328125 4.000007629394531 M 7.806182861328125 7.62939453125e-06 L 373.9447326660156 7.62939453125e-06 C 375.9848327636719 7.62939453125e-06 389.2979125976563 0.05670166015625 397.801513671875 0.05670166015625 C 401.8053894042969 0.05670166015625 404.7435607910156 0.0441436767578125 404.935791015625 0.00716400146484375 C 404.566162109375 0.6396255493164063 382.8523559570313 29.22161865234375 382.8523559570313 30.83478546142578 L 382.8523559570313 105.3709564208984 C 382.8523559570313 109.6590118408203 378.8642883300781 113.135124206543 373.9447326660156 113.135124206543 L 7.806182861328125 113.135124206543 C 2.886688232421875 113.135124206543 -1.10137939453125 109.6590118408203 -1.10137939453125 105.3709564208984 L -1.10137939453125 7.764175415039063 C -1.10137939453125 3.476119995117188 2.886688232421875 7.62939453125e-06 7.806182861328125 7.62939453125e-06 Z M 404.9396362304688 7.62939453125e-06 C 404.9491271972656 0.0024871826171875 404.9476623535156 0.00487518310546875 404.935791015625 0.00716400146484375 C 404.9375610351563 0.0041351318359375 404.9388427734375 0.00174713134765625 404.9396362304688 7.62939453125e-06 Z" stroke="none" fill="#313131"/>
    </g>
    <text id="_" data-name="😜☝️👏" transform="translate(1185.097 502)" fill="#313131" font-size="36" font-family="SegoeUIEmoji, Segoe UI Emoji"><tspan x="0" y="0">😜☝️👏</tspan></text>
    <path id="Path_853" data-name="Path 853" d="M18.784-22.4V-7.232L6.432-22.4H3.008V0H7.136V-15.168L19.488,0h3.424V-22.4ZM44.608-8.448c0-5.344-3.648-8.832-8.64-8.832a8.5,8.5,0,0,0-8.832,8.736c0,5.088,3.712,8.768,9.44,8.768a8.661,8.661,0,0,0,6.88-2.784L41.312-5.024a6.124,6.124,0,0,1-4.64,1.856c-2.976,0-5.056-1.6-5.536-4.1H44.544C44.576-7.648,44.608-8.128,44.608-8.448Zm-8.64-5.632A4.652,4.652,0,0,1,40.8-9.92H31.1A4.723,4.723,0,0,1,35.968-14.08Zm25.216-9.664v8.768a7,7,0,0,0-5.5-2.3,8.29,8.29,0,0,0-8.64,8.736c0,5.312,3.68,8.768,8.64,8.768a7.046,7.046,0,0,0,5.664-2.432V0h3.84V-23.744ZM56.16-3.2a4.994,4.994,0,0,1-5.088-5.344,4.994,4.994,0,0,1,5.088-5.344,4.994,4.994,0,0,1,5.088,5.344A4.994,4.994,0,0,1,56.16-3.2ZM88.736-17.28a7.1,7.1,0,0,0-5.472,2.272v-8.736h-4V0h3.808V-2.208A7.046,7.046,0,0,0,88.736.224a8.324,8.324,0,0,0,8.672-8.768A8.3,8.3,0,0,0,88.736-17.28ZM88.288-3.2A4.994,4.994,0,0,1,83.2-8.544a4.994,4.994,0,0,1,5.088-5.344,4.97,4.97,0,0,1,5.056,5.344A4.97,4.97,0,0,1,88.288-3.2ZM117.28-8.448c0-5.344-3.648-8.832-8.64-8.832a8.5,8.5,0,0,0-8.832,8.736c0,5.088,3.712,8.768,9.44,8.768a8.662,8.662,0,0,0,6.88-2.784l-2.144-2.464a6.124,6.124,0,0,1-4.64,1.856c-2.976,0-5.056-1.6-5.536-4.1h13.408C117.248-7.648,117.28-8.128,117.28-8.448Zm-8.64-5.632a4.652,4.652,0,0,1,4.832,4.16h-9.7A4.723,4.723,0,0,1,108.64-14.08Zm37.376,5.632c0-5.344-3.648-8.832-8.64-8.832a8.5,8.5,0,0,0-8.832,8.736c0,5.088,3.712,8.768,9.44,8.768a8.662,8.662,0,0,0,6.88-2.784L142.72-5.024a6.124,6.124,0,0,1-4.64,1.856c-2.976,0-5.056-1.6-5.536-4.1h13.408C145.984-7.648,146.016-8.128,146.016-8.448Zm-8.64-5.632a4.652,4.652,0,0,1,4.832,4.16h-9.7A4.723,4.723,0,0,1,137.376-14.08ZM162.4-17.088v8.64c0,3.424-1.888,5.152-4.672,5.152-2.528,0-4-1.472-4-4.576v-9.216h-4v9.76c0,5.152,2.976,7.552,7.36,7.552a6.981,6.981,0,0,0,5.5-2.4V0H166.4V-17.088ZM176.928.224c4.8,0,7.744-2.08,7.744-5.28,0-6.688-10.56-3.616-10.56-7.072,0-1.12,1.152-1.92,3.584-1.92a9.354,9.354,0,0,1,4.9,1.28l1.536-3.04a13.6,13.6,0,0,0-6.4-1.472c-4.608,0-7.52,2.112-7.52,5.344,0,6.816,10.56,3.744,10.56,7.008,0,1.184-1.056,1.888-3.584,1.888a11.5,11.5,0,0,1-5.952-1.7L169.7-1.7A13.577,13.577,0,0,0,176.928.224Zm11.456-7.648h3.168l.8-14.976h-4.736Zm1.6,7.648a2.467,2.467,0,0,0,2.528-2.5,2.441,2.441,0,0,0-2.528-2.464,2.476,2.476,0,0,0-2.592,2.464A2.5,2.5,0,0,0,189.984.224Z" transform="translate(982.24 498.744)" fill="#313131"/>
  </g>
</svg>
