<svg id="logo-V5" xmlns="http://www.w3.org/2000/svg" width="278.574" height="63.138" viewBox="0 0 278.574 63.138">
  <g id="Group_821" data-name="Group 821">
    <rect id="Rectangle_2194" data-name="Rectangle 2194" width="63.138" height="63.138" rx="13" fill="#272727"/>
    <path id="Path_849" data-name="Path 849" d="M45.906,64.514c5.543,3.166,16.356-.439,14.035-8.742q-.377-1.363-1.363-4.906c-.944-3.269-2.449-3.486-5.256-4.246-8.784-2.359-22.442-2.359-31.227,0-2.807.755-4.307.972-5.256,4.246q-.962,3.557-1.345,4.906c-2.3,8.3,8.53,11.908,14.054,8.742C36.876,60.31,38.579,60.31,45.906,64.514ZM15.849,49.756a9.5,9.5,0,0,0-.4,1.118q-.986,3.548-1.363,4.9a7.9,7.9,0,0,0-.3,2.7H12.457a.774.774,0,0,1-.778-.944l1.293-6.812a1.217,1.217,0,0,1,1.142-.944Zm43.757,0h1.75A1.217,1.217,0,0,1,62.5,50.7l1.293,6.812a.774.774,0,0,1-.778.944H61.677a7.9,7.9,0,0,0-.321-2.684q-.382-1.363-1.363-4.906a9.5,9.5,0,0,0-.4-1.118Zm-13.979,5.6L45.4,55.12a2.793,2.793,0,0,1-.689-1.83A2.5,2.5,0,0,1,47.43,50.7a2.831,2.831,0,0,1,2.359,1.453,2.576,2.576,0,0,1,2.359-1.269,2.661,2.661,0,0,1,.434.052,2.873,2.873,0,0,1,2.25,2.359,3.3,3.3,0,0,1,.033.434,2.614,2.614,0,0,1-.684,1.779l-.226.217-3.42,3.3a1.052,1.052,0,0,1-1.481-.061l-3.42-3.552ZM19.6,56.38a.709.709,0,0,1-.085-1.415l2.864-.179,1.939-3.9a.7.7,0,0,1,.944-.311.67.67,0,0,1,.335.359h0l2.156,5.19,1.609-3.571a.7.7,0,0,1,.944-.349.665.665,0,0,1,.311.278l1.014,1.6,2.614-.165a.709.709,0,1,1,.085,1.415l-3.019.189h0a.689.689,0,0,1-.623-.33l-.566-.868-1.731,3.845a.708.708,0,0,1-.387.4.7.7,0,0,1-.92-.382L24.893,52.9l-1.415,2.831a.708.708,0,0,1-.609.434Z" transform="translate(-6.159 -23.691)" fill="#fff" fill-rule="evenodd"/>
  </g>
  <path id="Nothelferkurs_2.0" data-name="Nothelferkurs 2.0" d="M12.995-16.1v9.775l-8-9.775H1.909V0h3.68V-9.775L13.616,0h3.059V-16.1ZM26.128.184c3.933,0,6.785-2.645,6.785-6.371s-2.852-6.371-6.785-6.371S19.32-9.913,19.32-6.187,22.195.184,26.128.184Zm0-2.944a3.14,3.14,0,0,1-3.174-3.427,3.14,3.14,0,0,1,3.174-3.427,3.123,3.123,0,0,1,3.151,3.427A3.123,3.123,0,0,1,26.128-2.76ZM42.32-3.128a2.418,2.418,0,0,1-1.449.46A1.443,1.443,0,0,1,39.33-4.3V-9.338h3.082V-12.1H39.33v-3.013H35.742V-12.1H33.833v2.76h1.909v5.083c0,2.944,1.7,4.439,4.623,4.439A5.128,5.128,0,0,0,43.286-.6Zm10.511-9.43A5.439,5.439,0,0,0,48.9-11.086v-5.98H45.31V0H48.9V-6.118c0-2.277,1.242-3.335,2.967-3.335,1.587,0,2.507.92,2.507,2.921V0H57.96V-7.084C57.96-10.856,55.752-12.558,52.831-12.558ZM73.692-6.141a6.126,6.126,0,0,0-6.44-6.417,6.3,6.3,0,0,0-6.6,6.371c0,3.68,2.783,6.371,7.061,6.371a6.481,6.481,0,0,0,5.106-2l-1.909-2.07a4.2,4.2,0,0,1-3.105,1.2,3.3,3.3,0,0,1-3.542-2.484h9.361C73.646-5.474,73.692-5.865,73.692-6.141Zm-6.417-3.7a2.94,2.94,0,0,1,3.036,2.576h-6.1A2.929,2.929,0,0,1,67.275-9.844ZM76.084,0h3.588V-17.066H76.084ZM86.94-12.627c0-1.219.575-1.794,1.633-1.794a2.512,2.512,0,0,1,1.449.437l.943-2.6a5.086,5.086,0,0,0-2.737-.667c-3.082,0-4.784,1.817-4.784,4.6v.552H81.535v2.76h1.909V0h3.588V-9.338h3.082V-12.1H86.94Zm16.7,6.486a6.126,6.126,0,0,0-6.44-6.417,6.3,6.3,0,0,0-6.6,6.371c0,3.68,2.783,6.371,7.061,6.371a6.481,6.481,0,0,0,5.106-2l-1.909-2.07a4.2,4.2,0,0,1-3.105,1.2,3.3,3.3,0,0,1-3.542-2.484h9.361C103.592-5.474,103.638-5.865,103.638-6.141Zm-6.417-3.7a2.94,2.94,0,0,1,3.036,2.576h-6.1A2.929,2.929,0,0,1,97.221-9.844Zm12.236-.9v-1.633H106.03V0h3.588V-5.842c0-2.369,1.311-3.45,3.289-3.45.276,0,.506.023.805.046v-3.312A4.994,4.994,0,0,0,109.457-10.741ZM125.074,0h4.347l-5.612-7.13,5.152-5.244h-4.278l-5.244,4.968v-9.66h-3.588V0h3.588V-3.151l1.725-1.7Zm14.375-12.374v6.118c0,2.277-1.2,3.335-2.852,3.335-1.587,0-2.507-.92-2.507-2.99v-6.463H130.5v6.992c0,3.818,2.185,5.566,5.29,5.566a5.006,5.006,0,0,0,3.841-1.656V0h3.4V-12.374Zm10.35,1.633v-1.633h-3.427V0h3.588V-5.842c0-2.369,1.311-3.45,3.289-3.45.276,0,.506.023.8.046v-3.312A4.994,4.994,0,0,0,149.8-10.741ZM160.4.184c3.7,0,5.842-1.633,5.842-3.933,0-4.876-7.475-2.829-7.475-4.945,0-.644.69-1.15,2.3-1.15a7.106,7.106,0,0,1,3.565.92l1.2-2.553a10.175,10.175,0,0,0-4.761-1.081c-3.611,0-5.727,1.656-5.727,4,0,4.945,7.475,2.875,7.475,4.9,0,.69-.621,1.127-2.277,1.127a8.466,8.466,0,0,1-4.3-1.2l-1.2,2.576A10.623,10.623,0,0,0,160.4.184Zm18.906-3.22,3.7-3.5c2.254-2.093,2.691-3.519,2.691-5.083,0-2.921-2.392-4.761-5.98-4.761a7.478,7.478,0,0,0-6.394,2.99l2.714,1.748a3.937,3.937,0,0,1,3.335-1.61c1.7,0,2.576.736,2.576,2,0,.782-.253,1.61-1.679,2.967l-6.21,5.865V0h12.167V-3.036Zm11.04,3.22a2.2,2.2,0,0,0,2.231-2.254,2.144,2.144,0,0,0-2.231-2.208,2.144,2.144,0,0,0-2.231,2.208A2.2,2.2,0,0,0,190.348.184Zm10.281.092c3.979,0,6.9-3.013,6.9-8.326s-2.921-8.326-6.9-8.326c-3.956,0-6.9,3.013-6.9,8.326S196.673.276,200.629.276Zm0-3.151c-1.84,0-3.128-1.518-3.128-5.175s1.288-5.175,3.128-5.175c1.863,0,3.151,1.518,3.151,5.175S202.492-2.875,200.629-2.875Z" transform="translate(71.045 39.267)" fill="#272727"/>
</svg>
