<svg xmlns="http://www.w3.org/2000/svg" width="31.97" height="23.059" viewBox="0 0 31.97 23.059">
  <g id="youtube-icon" transform="translate(1 1)">
    <path id="Path_847" data-name="Path 847" d="M30.342,7.3A3.787,3.787,0,0,0,27.7,4.572C25.356,4,15.984,4,15.984,4S6.612,4,4.269,4.627A3.787,3.787,0,0,0,1.627,7.351,39.5,39.5,0,0,0,1,14.557a39.5,39.5,0,0,0,.627,7.261,3.787,3.787,0,0,0,2.643,2.615c2.343.627,11.715.627,11.715.627s9.372,0,11.715-.627a3.787,3.787,0,0,0,2.643-2.724,39.5,39.5,0,0,0,.627-7.152,39.5,39.5,0,0,0-.627-7.26Z" transform="translate(-0.999 -4)" fill="none" stroke="#fff" stroke-linecap="round" stroke-linejoin="round" stroke-width="2"/>
    <path id="Path_848" data-name="Path 848" d="M9.75,17.389l7.833-4.454L9.75,8.48Z" transform="translate(2.17 -2.377)" fill="none" stroke="#fff" stroke-linecap="round" stroke-linejoin="round" stroke-width="2"/>
  </g>
</svg>
